<?xml version="1.0" encoding="UTF-8" standalone="no"?><svg xmlns="http://www.w3.org/2000/svg" xmlns:xlink="http://www.w3.org/1999/xlink" contentScriptType="application/ecmascript" contentStyleType="text/css" height="495px" preserveAspectRatio="none" style="width:523px;height:495px;" version="1.1" viewBox="0 0 523 495" width="523px" zoomAndPan="magnify"><defs><filter height="300%" id="fns0ro0z3ele0" width="300%" x="-1" y="-1"><feGaussianBlur result="blurOut" stdDeviation="2.0"/><feColorMatrix in="blurOut" result="blurOut2" type="matrix" values="0 0 0 0 0 0 0 0 0 0 0 0 0 0 0 0 0 0 .4 0"/><feOffset dx="4.0" dy="4.0" in="blurOut2" result="blurOut3"/><feBlend in="SourceGraphic" in2="blurOut3" mode="normal"/></filter></defs><g><!--MD5=[960eadb59a82bc450c9c800006643bbb]
cluster Sistema di vendita per corrispondenza--><rect fill="#FFFFFF" filter="url(#fns0ro0z3ele0)" height="362" style="stroke: #000000; stroke-width: 1.5;" width="321" x="191" y="24.5"/><text fill="#000000" font-family="sans-serif" font-size="14" font-weight="bold" lengthAdjust="spacingAndGlyphs" textLength="305" x="199" y="39.4951">Sistema di vendita per corrispondenza</text><ellipse cx="350.7758" cy="75.5552" fill="#FEFECE" filter="url(#fns0ro0z3ele0)" rx="68.2758" ry="16.0552" style="stroke: #A80036; stroke-width: 1.5;"/><text fill="#000000" font-family="sans-serif" font-size="14" lengthAdjust="spacingAndGlyphs" textLength="102" x="299.7758" y="80.2036">InserisciOrdine</text><ellipse cx="350.9597" cy="142.5919" fill="#FEFECE" filter="url(#fns0ro0z3ele0)" rx="65.9597" ry="15.5919" style="stroke: #A80036; stroke-width: 1.5;"/><text fill="#000000" font-family="sans-serif" font-size="14" lengthAdjust="spacingAndGlyphs" textLength="96" x="302.9597" y="147.2404">AnnullaOrdine</text><ellipse cx="351.1374" cy="211.4275" fill="#FEFECE" filter="url(#fns0ro0z3ele0)" rx="80.1374" ry="18.4275" style="stroke: #A80036; stroke-width: 1.5;"/><text fill="#000000" font-family="sans-serif" font-size="14" lengthAdjust="spacingAndGlyphs" textLength="131" x="285.6374" y="216.0759">VerificaStatoOrdine</text><ellipse cx="350.9711" cy="282.5942" fill="#FEFECE" filter="url(#fns0ro0z3ele0)" rx="73.4711" ry="17.0942" style="stroke: #A80036; stroke-width: 1.5;"/><text fill="#000000" font-family="sans-serif" font-size="14" lengthAdjust="spacingAndGlyphs" textLength="115" x="293.4711" y="287.2427">RichiediCatalogo</text><ellipse cx="351.2002" cy="352.34" fill="#FEFECE" filter="url(#fns0ro0z3ele0)" rx="74.7002" ry="17.34" style="stroke: #A80036; stroke-width: 1.5;"/><text fill="#000000" font-family="sans-serif" font-size="14" lengthAdjust="spacingAndGlyphs" textLength="118" x="292.2002" y="356.9885">SpedisciProdotto</text><!--MD5=[d9f75b78703733959770a1bae7362de0]
entity Cliente--><ellipse cx="76.5" cy="134.5" fill="#FEFECE" filter="url(#fns0ro0z3ele0)" rx="8" ry="8" style="stroke: #A80036; stroke-width: 1.5;"/><path d="M76.5,142.5 L76.5,169.5 M63.5,150.5 L89.5,150.5 M76.5,169.5 L63.5,184.5 M76.5,169.5 L89.5,184.5 " fill="none" filter="url(#fns0ro0z3ele0)" style="stroke: #A80036; stroke-width: 1.5;"/><text fill="#000000" font-family="sans-serif" font-size="14" lengthAdjust="spacingAndGlyphs" textLength="48" x="52.5" y="202.9951">Cliente</text><!--MD5=[a7c3909965e2f086fbae253f41eb8181]
entity SS--><ellipse cx="76.5" cy="297.5" fill="#FEFECE" filter="url(#fns0ro0z3ele0)" rx="8" ry="8" style="stroke: #A80036; stroke-width: 1.5;"/><path d="M76.5,305.5 L76.5,332.5 M63.5,313.5 L89.5,313.5 M76.5,332.5 L63.5,347.5 M76.5,332.5 L89.5,347.5 " fill="none" filter="url(#fns0ro0z3ele0)" style="stroke: #A80036; stroke-width: 1.5;"/><text fill="#000000" font-family="sans-serif" font-size="14" lengthAdjust="spacingAndGlyphs" textLength="141" x="6" y="365.9951">Societa di spedizioni</text><!--MD5=[1f9d7956da66e9c3f40daf39666a1c09]
entity SP--><ellipse cx="76.5" cy="413.5" fill="#FEFECE" filter="url(#fns0ro0z3ele0)" rx="8" ry="8" style="stroke: #A80036; stroke-width: 1.5;"/><path d="M76.5,421.5 L76.5,448.5 M63.5,429.5 L89.5,429.5 M76.5,448.5 L63.5,463.5 M76.5,448.5 L89.5,463.5 " fill="none" filter="url(#fns0ro0z3ele0)" style="stroke: #A80036; stroke-width: 1.5;"/><text fill="#000000" font-family="sans-serif" font-size="14" lengthAdjust="spacingAndGlyphs" textLength="94" x="29.5" y="481.9951">Spedizioniere</text><!--MD5=[5086791d93ce382d61472ff81481cc09]
link Cliente to InserisciOrdine--><path d="M100.9,150.55 C121.7,137.89 153.33,120.14 183,109.5 C217.81,97.01 258.44,88.61 290.91,83.29 " fill="none" id="Cliente-InserisciOrdine" style="stroke: #A80036; stroke-width: 1.0;"/><!--MD5=[c0c3db14369e3d6b0053dcf2a5cb8e21]
link Cliente to AnnullaOrdine--><path d="M100.73,163.54 C141.92,160.06 228.99,152.71 288.51,147.69 " fill="none" id="Cliente-AnnullaOrdine" style="stroke: #A80036; stroke-width: 1.0;"/><!--MD5=[f32e8052d4f84bfb27e29e7b27b366c8]
link Cliente to VerificaStatoOrdine--><path d="M100.73,169.42 C141.34,176.28 226.55,190.66 285.98,200.69 " fill="none" id="Cliente-VerificaStatoOrdine" style="stroke: #A80036; stroke-width: 1.0;"/><!--MD5=[0be12f437ec9800dabc007f9ff4f01c3]
link Cliente to RichiediCatalogo--><path d="M100.54,188.51 C120.63,207.24 151.42,232.88 183,247.5 C214.45,262.06 252.04,270.63 283.58,275.63 " fill="none" id="Cliente-RichiediCatalogo" style="stroke: #A80036; stroke-width: 1.0;"/><!--MD5=[18e864c4045ed3ac6325ad0b0f1b97e4]
link SS to SpedisciProdotto--><path d="M147.32,334.65 C188.32,338.26 239.95,342.81 280.83,346.41 " fill="none" id="SS-SpedisciProdotto" style="stroke: #A80036; stroke-width: 1.0;"/><!--MD5=[c0fbe117bc08a7b2fa1fbc072c20c4d7]
link SP to SpedisciProdotto--><path d="M123.73,428.89 C175.2,411.51 257.71,383.66 307.59,366.82 " fill="none" id="SP-SpedisciProdotto" style="stroke: #A80036; stroke-width: 1.0;"/><!--MD5=[ab36b972dc17138573d26a89be104ea5]
@startuml esempioUseCase

left to right direction

actor Cliente
actor "Societa di spedizioni" AS SS
actor Spedizioniere AS SP

rectangle "Sistema di vendita per corrispondenza" {
  usecase InserisciOrdine
  usecase AnnullaOrdine
  usecase VerificaStatoOrdine
  usecase RichiediCatalogo
  
  usecase SpedisciProdotto
}

Cliente - - InserisciOrdine
Cliente - - AnnullaOrdine
Cliente - - VerificaStatoOrdine
Cliente - - RichiediCatalogo

SS - - SpedisciProdotto
SP - - SpedisciProdotto
@enduml

PlantUML version 1.2020.02(Sun Mar 01 11:22:07 CET 2020)
(GPL source distribution)
Java Runtime: OpenJDK Runtime Environment
JVM: OpenJDK 64-Bit Server VM
Java Version: 17.0.14+7-Debian-1deb12u1
Operating System: Linux
Default Encoding: ISO-8859-1
Language: it
Country: IT
--></g></svg>